<svg width="39" height="13" viewBox="0 0 39 13" fill="none" xmlns="http://www.w3.org/2000/svg">
<path d="M0.944 6.144H4.32V2.768H6.336V6.144H9.712V8.16H6.336V11.536H4.32V8.16H0.944V6.144Z" fill="#00B833"/>
<path d="M15.2643 3.36L12.9923 5.36L11.6323 3.792L15.3283 0.672H17.5683V12H15.2643V3.36ZM20.653 6.336C20.653 5.664 20.7117 4.98133 20.829 4.288C20.957 3.59467 21.1757 2.96533 21.485 2.4C21.805 1.83467 22.237 1.376 22.781 1.024C23.325 0.661333 24.0183 0.48 24.861 0.48C25.7037 0.48 26.397 0.661333 26.941 1.024C27.485 1.376 27.9117 1.83467 28.221 2.4C28.541 2.96533 28.7597 3.59467 28.877 4.288C29.005 4.98133 29.069 5.664 29.069 6.336C29.069 7.008 29.005 7.69067 28.877 8.384C28.7597 9.07733 28.541 9.70667 28.221 10.272C27.9117 10.8373 27.485 11.3013 26.941 11.664C26.397 12.016 25.7037 12.192 24.861 12.192C24.0183 12.192 23.325 12.016 22.781 11.664C22.237 11.3013 21.805 10.8373 21.485 10.272C21.1757 9.70667 20.957 9.07733 20.829 8.384C20.7117 7.69067 20.653 7.008 20.653 6.336ZM23.053 6.336C23.053 6.63467 23.0637 6.992 23.085 7.408C23.117 7.824 23.1917 8.224 23.309 8.608C23.4263 8.992 23.6023 9.31733 23.837 9.584C24.0823 9.85067 24.4237 9.984 24.861 9.984C25.2877 9.984 25.6237 9.85067 25.869 9.584C26.1143 9.31733 26.2957 8.992 26.413 8.608C26.5303 8.224 26.5997 7.824 26.621 7.408C26.653 6.992 26.669 6.63467 26.669 6.336C26.669 6.03733 26.653 5.68 26.621 5.264C26.5997 4.848 26.5303 4.448 26.413 4.064C26.2957 3.68 26.1143 3.35467 25.869 3.088C25.6237 2.82133 25.2877 2.688 24.861 2.688C24.4237 2.688 24.0823 2.82133 23.837 3.088C23.6023 3.35467 23.4263 3.68 23.309 4.064C23.1917 4.448 23.117 4.848 23.085 5.264C23.0637 5.68 23.053 6.03733 23.053 6.336ZM30.1217 6.336C30.1217 5.664 30.1804 4.98133 30.2978 4.288C30.4258 3.59467 30.6444 2.96533 30.9538 2.4C31.2738 1.83467 31.7058 1.376 32.2498 1.024C32.7938 0.661333 33.4871 0.48 34.3298 0.48C35.1724 0.48 35.8658 0.661333 36.4098 1.024C36.9538 1.376 37.3804 1.83467 37.6898 2.4C38.0098 2.96533 38.2284 3.59467 38.3458 4.288C38.4738 4.98133 38.5378 5.664 38.5378 6.336C38.5378 7.008 38.4738 7.69067 38.3458 8.384C38.2284 9.07733 38.0098 9.70667 37.6898 10.272C37.3804 10.8373 36.9538 11.3013 36.4098 11.664C35.8658 12.016 35.1724 12.192 34.3298 12.192C33.4871 12.192 32.7938 12.016 32.2498 11.664C31.7058 11.3013 31.2738 10.8373 30.9538 10.272C30.6444 9.70667 30.4258 9.07733 30.2978 8.384C30.1804 7.69067 30.1217 7.008 30.1217 6.336ZM32.5218 6.336C32.5218 6.63467 32.5324 6.992 32.5538 7.408C32.5858 7.824 32.6604 8.224 32.7778 8.608C32.8951 8.992 33.0711 9.31733 33.3058 9.584C33.5511 9.85067 33.8924 9.984 34.3298 9.984C34.7564 9.984 35.0924 9.85067 35.3378 9.584C35.5831 9.31733 35.7644 8.992 35.8818 8.608C35.9991 8.224 36.0684 7.824 36.0898 7.408C36.1218 6.992 36.1378 6.63467 36.1378 6.336C36.1378 6.03733 36.1218 5.68 36.0898 5.264C36.0684 4.848 35.9991 4.448 35.8818 4.064C35.7644 3.68 35.5831 3.35467 35.3378 3.088C35.0924 2.82133 34.7564 2.688 34.3298 2.688C33.8924 2.688 33.5511 2.82133 33.3058 3.088C33.0711 3.35467 32.8951 3.68 32.7778 4.064C32.6604 4.448 32.5858 4.848 32.5538 5.264C32.5324 5.68 32.5218 6.03733 32.5218 6.336Z" fill="black"/>
</svg>
