<svg width="33" height="13" viewBox="0 0 33 13" fill="none" xmlns="http://www.w3.org/2000/svg">
<path d="M4.336 8.976H0.4V7.056H4.336V8.976Z" fill="#FF0000"/>
<path d="M9.34238 3.36L7.07038 5.36L5.71038 3.792L9.40638 0.672H11.6464V12H9.34238V3.36ZM14.7311 6.336C14.7311 5.664 14.7898 4.98133 14.9071 4.288C15.0351 3.59467 15.2538 2.96533 15.5631 2.4C15.8831 1.83467 16.3151 1.376 16.8591 1.024C17.4031 0.661333 18.0965 0.48 18.9391 0.48C19.7818 0.48 20.4751 0.661333 21.0191 1.024C21.5631 1.376 21.9898 1.83467 22.2991 2.4C22.6191 2.96533 22.8378 3.59467 22.9551 4.288C23.0831 4.98133 23.1471 5.664 23.1471 6.336C23.1471 7.008 23.0831 7.69067 22.9551 8.384C22.8378 9.07733 22.6191 9.70667 22.2991 10.272C21.9898 10.8373 21.5631 11.3013 21.0191 11.664C20.4751 12.016 19.7818 12.192 18.9391 12.192C18.0965 12.192 17.4031 12.016 16.8591 11.664C16.3151 11.3013 15.8831 10.8373 15.5631 10.272C15.2538 9.70667 15.0351 9.07733 14.9071 8.384C14.7898 7.69067 14.7311 7.008 14.7311 6.336ZM17.1311 6.336C17.1311 6.63467 17.1418 6.992 17.1631 7.408C17.1951 7.824 17.2698 8.224 17.3871 8.608C17.5045 8.992 17.6805 9.31733 17.9151 9.584C18.1605 9.85067 18.5018 9.984 18.9391 9.984C19.3658 9.984 19.7018 9.85067 19.9471 9.584C20.1925 9.31733 20.3738 8.992 20.4911 8.608C20.6085 8.224 20.6778 7.824 20.6991 7.408C20.7311 6.992 20.7471 6.63467 20.7471 6.336C20.7471 6.03733 20.7311 5.68 20.6991 5.264C20.6778 4.848 20.6085 4.448 20.4911 4.064C20.3738 3.68 20.1925 3.35467 19.9471 3.088C19.7018 2.82133 19.3658 2.688 18.9391 2.688C18.5018 2.688 18.1605 2.82133 17.9151 3.088C17.6805 3.35467 17.5045 3.68 17.3871 4.064C17.2698 4.448 17.1951 4.848 17.1631 5.264C17.1418 5.68 17.1311 6.03733 17.1311 6.336ZM24.1999 6.336C24.1999 5.664 24.2585 4.98133 24.3759 4.288C24.5039 3.59467 24.7225 2.96533 25.0319 2.4C25.3519 1.83467 25.7839 1.376 26.3279 1.024C26.8719 0.661333 27.5652 0.48 28.4079 0.48C29.2505 0.48 29.9439 0.661333 30.4879 1.024C31.0319 1.376 31.4585 1.83467 31.7679 2.4C32.0879 2.96533 32.3065 3.59467 32.4239 4.288C32.5519 4.98133 32.6159 5.664 32.6159 6.336C32.6159 7.008 32.5519 7.69067 32.4239 8.384C32.3065 9.07733 32.0879 9.70667 31.7679 10.272C31.4585 10.8373 31.0319 11.3013 30.4879 11.664C29.9439 12.016 29.2505 12.192 28.4079 12.192C27.5652 12.192 26.8719 12.016 26.3279 11.664C25.7839 11.3013 25.3519 10.8373 25.0319 10.272C24.7225 9.70667 24.5039 9.07733 24.3759 8.384C24.2585 7.69067 24.1999 7.008 24.1999 6.336ZM26.5999 6.336C26.5999 6.63467 26.6105 6.992 26.6319 7.408C26.6639 7.824 26.7385 8.224 26.8559 8.608C26.9732 8.992 27.1492 9.31733 27.3839 9.584C27.6292 9.85067 27.9705 9.984 28.4079 9.984C28.8345 9.984 29.1705 9.85067 29.4159 9.584C29.6612 9.31733 29.8425 8.992 29.9599 8.608C30.0772 8.224 30.1465 7.824 30.1679 7.408C30.1999 6.992 30.2159 6.63467 30.2159 6.336C30.2159 6.03733 30.1999 5.68 30.1679 5.264C30.1465 4.848 30.0772 4.448 29.9599 4.064C29.8425 3.68 29.6612 3.35467 29.4159 3.088C29.1705 2.82133 28.8345 2.688 28.4079 2.688C27.9705 2.688 27.6292 2.82133 27.3839 3.088C27.1492 3.35467 26.9732 3.68 26.8559 4.064C26.7385 4.448 26.6639 4.848 26.6319 5.264C26.6105 5.68 26.5999 6.03733 26.5999 6.336Z" fill="black"/>
</svg>
